# xmcd
#
# Track frame offsets:
# 150
# 17646
# 30761
# 44627
# 58571
# 79539
# 95219
# 106140
# 111905
# 127638
# 137517
# 152378
# 166218
# 181888
# 192057
#
# Disc length: 2896 seconds
#
#
# Revision: 0
# Processed by: cddbd v1.5.2PL0 Copyright (c) Steve Scherf et al.
# Submitted via: FreeRIP 2.945 
#
DISCID=aa0b4e0f
DTITLE=Conway Twitty - Merry Twismas
DYEAR=1900
DGENRE=Country
TTITLE0=Santa Claus Is Coming To Town
TTITLE1=Nine Little Reindeer
TTITLE2=Jingle Bells
TTITLE3=White Christmas
TTITLE4=Christmas Is For The Birds
TTITLE5=Johnny Snowman
TTITLE6=Frosty The Snowman
TTITLE7=Winter Wonderland
TTITLE8=Rudolph The Red Nose Reindeer
TTITLE9=Happy The Christmas Clown
TTITLE10=Silver Bells
TTITLE11=Ding A Ling, The Christmas Bell
TTITLE12=Christmas Is For Kids
TTITLE13=Here Comes Santa Claus
TTITLE14=The Night Before Christmas-Up on the Housetop-Jolly Ole St. Nicholas
EXTD=
EXTT0=
EXTT1=
EXTT2=
EXTT3=
EXTT4=
EXTT5=
EXTT6=
EXTT7=
EXTT8=
EXTT9=
EXTT10=
EXTT11=
EXTT12=
EXTT13=
EXTT14=
PLAYORDER=
